<svg width="29" height="29" viewBox="0 0 29 29" fill="none" xmlns="http://www.w3.org/2000/svg">
<path opacity="0.4" d="M5.30258 11.1926C5.73121 8.90657 7.72725 7.25 10.0531 7.25H18.9472C21.273 7.25 23.2691 8.90657 23.6977 11.1926L25.5102 20.8593C26.0679 23.8338 23.786 26.5833 20.7597 26.5833H8.24063C5.21429 26.5833 2.93236 23.8338 3.49008 20.8593L5.30258 11.1926Z" fill="url(#paint0_linear_2_28)"/>
<path fill-rule="evenodd" clip-rule="evenodd" d="M9.96877 6.04163C9.96877 3.53909 11.9975 1.51038 14.5 1.51038C17.0026 1.51038 19.0313 3.53909 19.0313 6.04163V9.66663C19.0313 10.1671 18.6255 10.5729 18.125 10.5729C17.6245 10.5729 17.2188 10.1671 17.2188 9.66663V6.04163C17.2188 4.5401 16.0015 3.32288 14.5 3.32288C12.9985 3.32288 11.7813 4.5401 11.7813 6.04163V9.66663C11.7813 10.1671 11.3755 10.5729 10.875 10.5729C10.3745 10.5729 9.96877 10.1671 9.96877 9.66663V6.04163Z" fill="url(#paint1_linear_2_28)"/>
<defs>
<linearGradient id="paint0_linear_2_28" x1="3.40582" y1="16.9167" x2="25.5945" y2="16.9167" gradientUnits="userSpaceOnUse">
<stop stop-color="#1539F5"/>
<stop offset="1" stop-color="#2D66C3"/>
</linearGradient>
<linearGradient id="paint1_linear_2_28" x1="9.96877" y1="6.04163" x2="19.0313" y2="6.04163" gradientUnits="userSpaceOnUse">
<stop stop-color="#1539F5"/>
<stop offset="1" stop-color="#2D66C3"/>
</linearGradient>
</defs>
</svg>
