<svg width="29" height="29" viewBox="0 0 29 29" fill="none" xmlns="http://www.w3.org/2000/svg">
<path d="M9.66661 9.37308C8.83712 9.37308 8.1647 10.0455 8.1647 10.875C8.1647 11.7045 8.83712 12.3769 9.66661 12.3769V9.37308ZM14.4999 12.3769C15.3294 12.3769 16.0019 11.7045 16.0019 10.875C16.0019 10.0455 15.3294 9.37308 14.4999 9.37308V12.3769ZM9.66661 14.2064C8.83712 14.2064 8.1647 14.8788 8.1647 15.7083C8.1647 16.5378 8.83712 17.2102 9.66661 17.2102V14.2064ZM19.3333 17.2102C20.1628 17.2102 20.8352 16.5378 20.8352 15.7083C20.8352 14.8788 20.1628 14.2064 19.3333 14.2064V17.2102ZM9.66661 19.0397C8.83712 19.0397 8.1647 19.7122 8.1647 20.5417C8.1647 21.3711 8.83712 22.0436 9.66661 22.0436V19.0397ZM19.3333 22.0436C20.1628 22.0436 20.8352 21.3711 20.8352 20.5417C20.8352 19.7122 20.1628 19.0397 19.3333 19.0397V22.0436ZM20.8346 2.41666C20.8346 1.58717 20.1622 0.914747 19.3327 0.914747C18.5032 0.914747 17.8308 1.58717 17.8308 2.41666H20.8346ZM17.8308 6.04166C17.8308 6.87114 18.5032 7.54357 19.3327 7.54357C20.1622 7.54357 20.8346 6.87114 20.8346 6.04166H17.8308ZM11.1679 2.41666C11.1679 1.58717 10.4955 0.914747 9.66602 0.914747C8.83653 0.914747 8.16411 1.58717 8.16411 2.41666H11.1679ZM8.16411 6.04166C8.16411 6.87114 8.83653 7.54357 9.66602 7.54357C10.4955 7.54357 11.1679 6.87114 11.1679 6.04166H8.16411ZM8.45827 5.73107H20.5416V2.72725H8.45827V5.73107ZM23.873 9.06249V21.75H26.8769V9.06249H23.873ZM20.5416 25.0814H8.45827V28.0852H20.5416V25.0814ZM5.12685 21.75V9.06249H2.12303V21.75H5.12685ZM8.45827 25.0814C6.61838 25.0814 5.12685 23.5899 5.12685 21.75H2.12303C2.12303 25.2488 4.95941 28.0852 8.45827 28.0852V25.0814ZM23.873 21.75C23.873 23.5899 22.3815 25.0814 20.5416 25.0814V28.0852C24.0405 28.0852 26.8769 25.2488 26.8769 21.75H23.873ZM20.5416 5.73107C22.3815 5.73107 23.873 7.2226 23.873 9.06249H26.8769C26.8769 5.56363 24.0405 2.72725 20.5416 2.72725V5.73107ZM8.45827 2.72725C4.95942 2.72725 2.12303 5.56363 2.12303 9.06249H5.12685C5.12685 7.2226 6.61838 5.73107 8.45827 5.73107V2.72725ZM9.66661 12.3769H14.4999V9.37308H9.66661V12.3769ZM9.66661 17.2102H19.3333V14.2064H9.66661V17.2102ZM9.66661 22.0436H19.3333V19.0397H9.66661V22.0436ZM17.8308 2.41666V6.04166H20.8346V2.41666H17.8308ZM8.16411 2.41666V6.04166H11.1679V2.41666H8.16411Z" fill="white"/>
</svg>
