<svg width="40" height="40" viewBox="0 0 40 40" fill="none" xmlns="http://www.w3.org/2000/svg">
<path d="M25.9167 26.6666C25.9167 27.0809 26.2525 27.4166 26.6667 27.4166C27.0809 27.4166 27.4167 27.0809 27.4167 26.6666H25.9167ZM13.3333 16.6666L12.9173 16.0426C12.5727 16.2724 12.4795 16.738 12.7093 17.0827L13.3333 16.6666ZM16.0426 22.0827C16.2724 22.4273 16.7381 22.5204 17.0827 22.2907C17.4273 22.0609 17.5205 21.5953 17.2907 21.2506L16.0426 22.0827ZM18.7494 13.9574C19.094 13.7276 19.1871 13.2619 18.9574 12.9173C18.7276 12.5726 18.262 12.4795 17.9173 12.7093L18.7494 13.9574ZM27.4167 26.6666C27.4167 23.0424 25.5889 20.3245 22.916 18.5426C20.2654 16.7755 16.7779 15.9166 13.3333 15.9166V17.4166C16.5554 17.4166 19.7346 18.2244 22.084 19.7907C24.4111 21.3421 25.9167 23.6242 25.9167 26.6666H27.4167ZM12.7093 17.0827L16.0426 22.0827L17.2907 21.2506L13.9574 16.2506L12.7093 17.0827ZM13.7494 17.2907L18.7494 13.9574L17.9173 12.7093L12.9173 16.0426L13.7494 17.2907ZM10 4.08331H30V2.58331H10V4.08331ZM35.9167 9.99998V30H37.4167V9.99998H35.9167ZM30 35.9166H10V37.4166H30V35.9166ZM4.08334 30V9.99998H2.58334V30H4.08334ZM10 35.9166C6.73233 35.9166 4.08334 33.2677 4.08334 30H2.58334C2.58334 34.0961 5.9039 37.4166 10 37.4166V35.9166ZM35.9167 30C35.9167 33.2677 33.2677 35.9166 30 35.9166V37.4166C34.0961 37.4166 37.4167 34.0961 37.4167 30H35.9167ZM30 4.08331C33.2677 4.08331 35.9167 6.7323 35.9167 9.99998H37.4167C37.4167 5.90387 34.0961 2.58331 30 2.58331V4.08331ZM10 2.58331C5.9039 2.58331 2.58334 5.90387 2.58334 9.99998H4.08334C4.08334 6.73229 6.73233 4.08331 10 4.08331V2.58331Z" fill="#28303F"/>
</svg>
