<svg width="29" height="29" viewBox="0 0 29 29" fill="none" xmlns="http://www.w3.org/2000/svg">
<path fill-rule="evenodd" clip-rule="evenodd" d="M14.5 6.6751L15.4244 5.68193C17.9771 2.93936 22.116 2.93936 24.6687 5.68193C27.2215 8.4245 27.2215 12.8711 24.6687 15.6137L16.3488 24.5522C15.3277 25.6493 13.6722 25.6493 12.6511 24.5522L4.33119 15.6137C1.77844 12.8711 1.77844 8.4245 4.33119 5.68193C6.88394 2.93936 11.0228 2.93936 13.5755 5.68193L14.5 6.6751ZM20.5416 6.34375C20.0411 6.34375 19.6354 6.74949 19.6354 7.25C19.6354 7.75051 20.0411 8.15625 20.5416 8.15625C21.3758 8.15625 22.052 8.83249 22.052 9.66667C22.052 10.1672 22.4578 10.5729 22.9583 10.5729C23.4588 10.5729 23.8645 10.1672 23.8645 9.66667C23.8645 7.83147 22.3768 6.34375 20.5416 6.34375Z" fill="white"/>
</svg>
