<svg width="29" height="29" viewBox="0 0 29 29" fill="none" xmlns="http://www.w3.org/2000/svg">
<path opacity="0.4" d="M5.30252 11.1926C5.73115 8.90657 7.72719 7.25 10.0531 7.25H18.9471C21.273 7.25 23.269 8.90657 23.6977 11.1926L25.5102 20.8593C26.0679 23.8338 23.7859 26.5833 20.7596 26.5833H8.24057C5.21423 26.5833 2.9323 23.8338 3.49002 20.8593L5.30252 11.1926Z" fill="white"/>
<path fill-rule="evenodd" clip-rule="evenodd" d="M9.96869 6.04167C9.96869 3.53913 11.9974 1.51042 14.4999 1.51042C17.0025 1.51042 19.0312 3.53913 19.0312 6.04167V9.66667C19.0312 10.1672 18.6254 10.5729 18.1249 10.5729C17.6244 10.5729 17.2187 10.1672 17.2187 9.66667V6.04167C17.2187 4.54014 16.0015 3.32292 14.4999 3.32292C12.9984 3.32292 11.7812 4.54014 11.7812 6.04167V9.66667C11.7812 10.1672 11.3754 10.5729 10.8749 10.5729C10.3744 10.5729 9.96869 10.1672 9.96869 9.66667V6.04167Z" fill="white"/>
</svg>
