<svg width="29" height="29" viewBox="0 0 29 29" fill="none" xmlns="http://www.w3.org/2000/svg">
<path fill-rule="evenodd" clip-rule="evenodd" d="M11.2778 12.8889C14.837 12.8889 17.7223 10.0036 17.7223 6.44445C17.7223 2.88528 14.837 0 11.2778 0C7.71865 0 4.83336 2.88528 4.83336 6.44445C4.83336 10.0036 7.71865 12.8889 11.2778 12.8889ZM11.2778 29C17.5064 29 22.5557 26.1147 22.5557 22.5556C22.5557 18.9964 17.5064 16.1111 11.2778 16.1111C5.04926 16.1111 0 18.9964 0 22.5556C0 26.1147 5.04926 29 11.2778 29ZM17.6602 12.5916C19.1951 10.9983 20.139 8.83166 20.139 6.44458C20.139 5.30939 19.9255 4.22407 19.5366 3.22655C22.1117 3.33306 24.1667 5.45439 24.1667 8.05569C24.1667 10.7251 22.0027 12.889 19.3333 12.889C18.7452 12.889 18.1815 12.784 17.6602 12.5916ZM24.9722 22.5554C24.9722 23.4235 24.7793 24.2625 24.4197 25.0553C27.169 24.2031 29 22.6806 29 20.9443C29 18.5177 25.4233 16.5087 20.762 16.1634C23.357 17.7759 24.9722 20.0436 24.9722 22.5554Z" fill="white"/>
</svg>
