<svg width="87" height="31" viewBox="0 0 87 31" fill="none" xmlns="http://www.w3.org/2000/svg">
<g clip-path="url(#clip0_37_526)">
<path d="M26.6487 0.000823975H5.96608L4.47365 4.13282H25.1563L26.6487 0.000823975Z" fill="white"/>
<path d="M24.4095 6.20029H3.72696L2.23451 10.3322H22.9171L24.4095 6.20029Z" fill="white"/>
<path d="M22.1709 12.3998H1.49228L-0.000152588 16.5318H20.6824L22.1709 12.3998Z" fill="white"/>
<path d="M74.4262 26.838H78.1291C79.534 26.838 80.3837 26.4959 80.9826 25.7235C81.4913 25.0481 81.7471 24.2129 81.7047 23.3658C81.7047 22.0783 81.2777 21.177 80.4277 20.5495C79.917 20.1471 79.2306 19.95 78.0854 19.95H74.4262V26.838ZM69.5336 31.0022V6.20213H85.5355L84.1309 10.3663H74.4262V15.8542H78.3846C81.5771 15.8542 83.2372 16.6266 84.3703 17.6164C85.264 18.3889 86.7965 20.1029 86.7965 23.4945C86.7965 26.8863 85.2004 28.6847 83.9034 29.6301C82.3712 30.7004 80.7511 31.0022 77.4746 31.0022H69.5336ZM55.3637 31.0022V10.3663H48.2564V6.20213H68.0014L66.5968 10.3663H60.2999V31.0022H55.3637ZM35.6586 16.0956H38.4242C38.9951 16.1357 39.569 16.0923 40.1279 15.9668C41.2774 15.6248 41.9995 14.5948 41.9995 13.1786C41.9995 11.5049 41.2334 10.7646 40.1279 10.4347C39.5152 10.2892 38.8853 10.2309 38.2563 10.2617H35.6586V16.0956ZM35.7026 20.3885V26.9265H39.1064C40.1279 26.9265 41.0658 26.838 41.744 26.1983C42.0806 25.8732 42.3426 25.478 42.5117 25.04C42.6804 24.6022 42.7524 24.1323 42.7216 23.6634C42.745 22.8984 42.5224 22.1463 42.0874 21.5189C41.361 20.6179 40.467 20.4047 38.9348 20.4047L35.7026 20.3885ZM43.5759 17.7854V17.8739C44.4047 18.1952 45.1801 18.643 45.8742 19.2017C47.3188 20.4086 47.9573 21.9898 47.9573 24.0497C47.9573 27.4415 46.1696 29.8876 43.2365 30.66C42.3429 30.9176 41.4049 31.0022 39.6453 31.0022H30.7663V6.20213H38.6394C39.8832 6.15656 41.1276 6.27147 42.3429 6.54412C45.192 7.31661 47.0636 9.29208 47.0636 12.4222C47.0848 13.1652 46.956 13.9047 46.6861 14.5962C46.4156 15.2878 46.0095 15.9169 45.4912 16.4456C44.9443 17.0092 44.2935 17.4602 43.5759 17.7733" fill="white"/>
</g>
<defs>
<clipPath id="clip0_37_526">
<rect width="87" height="31" fill="white"/>
</clipPath>
</defs>
</svg>
